<svg id="Layer_1" data-name="Layer 1" xmlns="http://www.w3.org/2000/svg" viewBox="0 0 237.59 57.05"><title>logo-bumaba-mart</title><path d="M82.59,58.84V41H85.3l6.32,11.66L97.92,41h2.66V58.84H97.69v-12l-5.11,9.31H90.69l-5.11-9.26v12Z" transform="translate(-0.31 -1.84)" fill="#2178d8"/><path d="M102.58,58.84,110.69,41h2.66l8.07,17.83h-3.33l-1.77-4.12h-8.71l-1.74,4.12Zm9.36-14.32-3.25,7.62h6.47L112,44.52Z" transform="translate(-0.31 -1.84)" fill="#2178d8"/><path d="M123.33,58.84V41h7.74a6.72,6.72,0,0,1,4.53,1.4,5,5,0,0,1,1.59,3.94,4.83,4.83,0,0,1-4,5.06,3.75,3.75,0,0,1,2.12,1.94l3,5.49h-3.62l-3.09-5.69a2.63,2.63,0,0,0-1-1.14,3.59,3.59,0,0,0-1.58-.3h-2.41v7.13Zm3.23-9.53h3.95c2.36,0,3.54-1,3.54-2.89s-1.18-2.86-3.54-2.86h-3.95Z" transform="translate(-0.31 -1.84)" fill="#2178d8"/><path d="M144.48,58.84V43.71h-6.13V41h15.49v2.7h-6.15V58.84Z" transform="translate(-0.31 -1.84)" fill="#2178d8"/><rect y="49.07" width="78.12" height="1.33" fill="#2178d8"/><rect x="159.35" y="49.07" width="78.12" height="1.33" fill="#2178d8"/><path d="M.31,32.21l5.37-6.36c1.84,2.38,3.78,3.62,6,3.62,2.83,0,4.38-1.74,4.38-5.07v-15H4V1.84H25.81v22c0,9-4.67,13.52-13.42,13.52C7.32,37.33,3,35.54.31,32.21Z" transform="translate(-0.31 -1.84)" fill="#2178d8"/><path d="M55,29.87H40.32l-2.73,6.76h-10L42.91,1.84H52.6L68,36.63H57.77Zm-2.88-7.25L47.68,11.48,43.2,22.62Z" transform="translate(-0.31 -1.84)" fill="#2178d8"/><path d="M123.43,1.84,112.14,36.63H101.61L95,15.46,88,36.63H77.45L66.17,1.84H76.31l7,22.22L90.67,1.84h9l7,22.42L114,1.84Z" transform="translate(-0.31 -1.84)" fill="#2178d8"/><path d="M149.08,29.87H134.37l-2.74,6.76h-10L137,1.84h9.69l15.41,34.79H151.81Zm-2.89-7.25-4.47-11.14-4.47,11.14Z" transform="translate(-0.31 -1.84)" fill="#2178d8"/><path d="M180.05,27.39h-5.37v9.24h-9.84V1.84h15.9c9.49,0,15.46,4.92,15.46,12.87a11.56,11.56,0,0,1-6.81,11l7.5,10.93H186.36Zm.09-17.8h-5.46V19.78h5.46c4.08,0,6.12-1.89,6.12-5.07S184.22,9.59,180.14,9.59Z" transform="translate(-0.31 -1.84)" fill="#2178d8"/><path d="M224.93,29.87H210.22l-2.74,6.76h-10L212.8,1.84h9.69L237.9,36.63H227.66Zm-2.88-7.25-4.48-11.14L213.1,22.62Z" transform="translate(-0.31 -1.84)" fill="#2178d8"/></svg>