<svg id="Layer_1" data-name="Layer 1" xmlns="http://www.w3.org/2000/svg" viewBox="0 0 237.9 62.84"><title>logo-bumaba-mart</title><path d="M1.31,38.13V1H19.22q6,0,9.29,2.61a8.43,8.43,0,0,1,3.29,7,8.88,8.88,0,0,1-1.44,5.05,8.65,8.65,0,0,1-4,3.21A9.16,9.16,0,0,1,31.12,22a9,9,0,0,1,1.69,5.56,9.34,9.34,0,0,1-3.51,7.71q-3.5,2.82-9.56,2.82Zm9.27-22.38h6.9a6.41,6.41,0,0,0,3.87-.95,3.44,3.44,0,0,0,1.24-2.9A3.36,3.36,0,0,0,21.35,9a6.57,6.57,0,0,0-3.87-.92h-6.9Zm0,15.27h7.85a6.05,6.05,0,0,0,3.92-1,3.75,3.75,0,0,0,1.24-3.08,3.67,3.67,0,0,0-1.24-3.05,6.18,6.18,0,0,0-3.92-1H10.58Z" transform="translate(-1.31 -1)" fill="#129d37"/><path d="M54.72,38.71q-8.11,0-12.41-4.11T38,22.33V1h9.69V22.44q0,4.05,1.79,6.11a6.54,6.54,0,0,0,5.22,2.05,6.49,6.49,0,0,0,5.16-2.05q1.78-2.06,1.79-6.11V1H71.2V22.33q0,8.16-4.19,12.27T54.72,38.71Z" transform="translate(-1.31 -1)" fill="#129d37"/><path d="M77.78,38.13V1h8.06L97.69,22.28,109.54,1h7.85V38.13h-8.74V18l-8.48,14.69H94.9L86.53,18.17v20Z" transform="translate(-1.31 -1)" fill="#129d37"/><path d="M119.76,38.13,137.14,1h7.64l17.38,37.13h-9.69l-3.21-7.53H132.67l-3.22,7.53Zm21.12-27-5,12.06H146l-5-12.06Z" transform="translate(-1.31 -1)" fill="#129d37"/><path d="M164.42,38.13V1h17.91q6,0,9.3,2.61a8.45,8.45,0,0,1,3.29,7,8.81,8.81,0,0,1-1.45,5.05,8.65,8.65,0,0,1-4,3.21,9.23,9.23,0,0,1,4.8,3.19,9,9,0,0,1,1.68,5.56,9.36,9.36,0,0,1-3.5,7.71q-3.51,2.82-9.56,2.82Zm9.27-22.38h6.9a6.36,6.36,0,0,0,3.87-.95,3.41,3.41,0,0,0,1.24-2.9A3.34,3.34,0,0,0,184.46,9a6.52,6.52,0,0,0-3.87-.92h-6.9Zm0,15.27h7.85a6.1,6.1,0,0,0,3.93-1,3.78,3.78,0,0,0,1.23-3.08,3.7,3.7,0,0,0-1.23-3.05,6.24,6.24,0,0,0-3.93-1h-7.85Z" transform="translate(-1.31 -1)" fill="#129d37"/><path d="M196.82,38.13,214.2,1h7.63l17.38,37.13h-9.69l-3.21-7.53H209.72l-3.21,7.53Zm21.12-27-5.06,12.06H223.1L218,11.11Z" transform="translate(-1.31 -1)" fill="#129d37"/><path d="M83.9,63.84V46h2.71l6.32,11.66L99.23,46h2.66V63.84H99v-12l-5.11,9.31H92l-5.11-9.26v12Z" transform="translate(-1.31 -1)" fill="#fac223"/><path d="M103.89,63.84,112,46h2.66l8.07,17.83H119.4l-1.77-4.12h-8.71l-1.74,4.12Zm9.36-14.32L110,57.14h6.47l-3.21-7.62Z" transform="translate(-1.31 -1)" fill="#fac223"/><path d="M124.64,63.84V46h7.74a6.69,6.69,0,0,1,4.53,1.4,5,5,0,0,1,1.59,3.94,4.83,4.83,0,0,1-4,5.06,3.74,3.74,0,0,1,2.12,1.94l3,5.49H136l-3.09-5.69A2.65,2.65,0,0,0,131.86,57a3.62,3.62,0,0,0-1.58-.3h-2.41v7.13Zm3.23-9.53h3.95c2.36,0,3.54-1,3.54-2.89s-1.18-2.86-3.54-2.86h-3.95Z" transform="translate(-1.31 -1)" fill="#fac223"/><path d="M145.79,63.84V48.71h-6.13V46h15.49v2.7H149V63.84Z" transform="translate(-1.31 -1)" fill="#fac223"/><rect x="0.31" y="54.91" width="78.12" height="1.33" fill="#fac223"/><rect x="159.66" y="54.91" width="78.12" height="1.33" fill="#fac223"/></svg>