<svg xmlns="http://www.w3.org/2000/svg" viewBox="0 0 169.75 72.04"><title>logo</title><g style="isolation:isolate"><g id="Layer_1" data-name="Layer 1"><path d="M37.83,2.19c.4.22.11.6,0,.87-.53,1-1,1.95-1.6,2.91-.4.68-.86,1.33-1.28,2s-1,1.63-1.55,2.39c-.82,1.05-2.07,2.9-2,4.29a2.26,2.26,0,0,0,.27-.28c2.2-3.13,4-5.5,5.54-9.06.34-.8.69-1.59,1-2.38.14-.3.15-.3.52-.2a2.68,2.68,0,0,1-.07.27c-.58,1.35-1.15,2.72-1.77,4.06-.3.66-.69,1.27-1,1.91-.75,1.39-1.52,3.08-2.26,4.34-.92,1.58-2.72,2.68-2.15,4.79.14.55.27,1.1.42,1.74a8.61,8.61,0,0,0,.87-1.17c1.69-3.27,1.53-2.58,2.59-6.14A21.06,21.06,0,0,1,36.28,10c.39-.9.7-1.83,1.07-2.74s.76-1.87,1.21-2.77a10.24,10.24,0,0,1,.95-1.41A.32.32,0,0,1,40,3a7,7,0,0,1-.68,1.34c-.15.26-.28.53-.45.77a12.67,12.67,0,0,0-1.31,3l.1-.11a8,8,0,0,1,1.56-1.73c.66-.53,1.29-1.1,1.95-1.64a6.56,6.56,0,0,1,.68-.43c.29-.17.56.17.27.41a3.55,3.55,0,0,1-.31.23,22.1,22.1,0,0,0-3.68,3.38,3.51,3.51,0,0,0-.26.4,2,2,0,0,0,.3,0c2.87-1.05,3.34-.9,5.15-3.38.25-.35.6-.09.37.26l-1.17,1.8,2.47-1c.29-.13.52.27.22.41A16.67,16.67,0,0,1,41.76,8a10.88,10.88,0,0,0-1.28.54c-1.73.63-1.94.4-3.44,1.64a7.65,7.65,0,0,0-.75,2,12.9,12.9,0,0,1,3.35-1.45,10.42,10.42,0,0,0,4.88-2.33c.32-.23,1.11-.9,1.39-1s.53.19.24.39C45.06,8.52,44.09,9.27,43,10c1.24.15,2.76-.81,3.65-1.53.17-.15.37-.35.56-.12a.19.19,0,0,1,0,.3,9.51,9.51,0,0,1-1.05.85,9.25,9.25,0,0,1-3.15,1.19,27.12,27.12,0,0,0-3.78.94,4.89,4.89,0,0,0-2.91,2A6.6,6.6,0,0,0,35.62,15c-.08.29-.12.58-.22.87a.5.5,0,0,0,.12.55,3.45,3.45,0,0,0,1.7-1A9.57,9.57,0,0,1,39,14.1a14.74,14.74,0,0,1,4.83-2.58A15.54,15.54,0,0,0,47.86,9.3c.15-.1.28-.14.4,0s0,.28-.14.37l-1.28.92s0,0,0,.09a4.43,4.43,0,0,0,2-.45c.43-.15.62.29.16.43l-1.51.41a18.13,18.13,0,0,0-7.74,3.38l0,.07c1.53-.58,3.09-1.06,4.63-1.6.79-.27,1.57-.57,2.35-.84.6-.21,1.21-.4,1.81-.62.32-.12.62-.28.92-.42s.76.23.11.51c-.87.37-1.74.76-2.62,1.08s-1.52.46-2.27.71c-1.06.35-2.11.73-3.16,1.1a11.23,11.23,0,0,0-3.78,1.87c-2.58,2-1.89.4-4.2,3.64a5.79,5.79,0,0,0-.49.79,16,16,0,0,1-1.52,2.46,3.44,3.44,0,0,0-.61,1.52.85.85,0,0,0,1.19-.38c.34-.5.67-1,1-1.54a12.82,12.82,0,0,1,3-3.94,15.35,15.35,0,0,1,4.08-2.2s.09,0,.11-.05c.3-.3.72-.34,1.06-.54,1.74-1,3.67-1.24,5.32-2.41.37-.27,2.65-1.51,3.24-1.84s.9,0,.45.26l-2.72,1.64c-1.86,1.3-5.48,2.29-5.92,2.75a20.9,20.9,0,0,0,2.92-.7,23,23,0,0,0,4.5-2c.63-.35,1.2-.8,1.82-1.17a.24.24,0,1,1,.26.41,14.89,14.89,0,0,1-2.78,1.7,34.36,34.36,0,0,1-4.57,1.79,16.53,16.53,0,0,1-2.4.51,9,9,0,0,0-4.68,2.27,16.11,16.11,0,0,0-2.14,2.92,5.83,5.83,0,0,0-.26.68c1.2-.74,2.23-1.36,3.37-2.13a14.51,14.51,0,0,1,3-1.29c1.11-.41,2.22-.83,3.35-1.2a5.69,5.69,0,0,0,1.53-.79,33,33,0,0,1,3-1.84A26.84,26.84,0,0,0,51.14,14c.28-.2.67.07.38.31a10.83,10.83,0,0,0-1.35,1.08c-.87,1-2,1.24-2.78,2.38a3.15,3.15,0,0,0,.44,0c2.14-.48,2.68-1.62,3.91-3,.26-.29.67-.09.44.21s-.69.89-1.11,1.41a4.66,4.66,0,0,0,1.75-.23c.44-.13.65.29.16.42-2.43.63-1.44-.07-3.89,1.46a1.5,1.5,0,0,0,.27.07c.63,0,1.25,0,1.87,0,.15,0,2.68-.36,2.46.25-.1.26-.47.15-.67.15-.42,0-3,.18-3.21.14a18.89,18.89,0,0,0-3,0,12.34,12.34,0,0,0-3,.83.51.51,0,0,0,.46.29,10.58,10.58,0,0,0,2.79.41,4.7,4.7,0,0,0,1.6-.06c.85-.18,1.72-.31,2.58-.48.31-.06,2.24-.55,2.4-.51.35.09.21.44-.05.49-.79.15-1.58.3-2.37.47-.36.08-.72.22-1.08.33v.09l3.45.26a3,3,0,0,1,1,0c.51.11.14.57-.66.48l-1.86-.14c-1.79-.32-4.47,0-6.42-.35A8.46,8.46,0,0,1,43,20c-.46-.25-.3-.49-1.1-.23-.46.16-2,.62-2.25,1.08A24.08,24.08,0,0,0,45.13,22a11.07,11.07,0,0,1,1.12.22,9.69,9.69,0,0,0,4.21.25,14.09,14.09,0,0,1,4-.4c.65,0,.91.69.25.59A7.38,7.38,0,0,0,51.2,23c.2.34.77.25,1.1.26.85,0,1.83.08,2.66.05.55,0,.77.56,0,.58a20.74,20.74,0,0,1-4-.13,4.77,4.77,0,0,1-.62-.17,9.74,9.74,0,0,0-2.53-.44,5.55,5.55,0,0,1-2.29-.3,11.72,11.72,0,0,0-1.41-.28c-1.45-.24-2.89-.5-4.34-.75-.95-.17-1.51-.41-2.36.27a29.38,29.38,0,0,1-3.63,2.66,12.76,12.76,0,0,0-1.94,1.58c-.36.31-1.33,1.09-.33,1.27a5.1,5.1,0,0,0,2-.15c.23-.05,2.32-1.25,2.8-1.47a17.06,17.06,0,0,1,8.19-1.11,5.8,5.8,0,0,0,.93,0c2.08-.16,4.12.46,6.21.1.58-.1,1.18-.05,1.77-.11.9-.08,1.63-.47,1.73-.05a.21.21,0,0,1-.17.29,7.92,7.92,0,0,1-1.08.21,43.66,43.66,0,0,1-5.12.22c-.91,0-1.83-.1-2.75-.08s-2,.1-3,.18c-.78.07-1.57.21-2.36.24a17.15,17.15,0,0,0-3,.62c-.74.21-1.58.93-.87,1.11a14.69,14.69,0,0,0,2.31.19,28.2,28.2,0,0,0,4.11-.15,9.58,9.58,0,0,1,3.16,0c1.72.44,1.77.18,3.27-.28a15.09,15.09,0,0,1,4.76-.87c.18,0,1.25-.17,1.17.28,0,.23-1.13.3-1.34.32a19.54,19.54,0,0,0-3,.39c.74.37,1.22,1.2,2.1,1.28a18.53,18.53,0,0,1,2,.13c.29.05.39.45,0,.52a15.48,15.48,0,0,1-2.36.05c-.42,0-.8-.57-1.34-.91-.3-.19-.63-.33-.94-.49-.51-.25-.93,0-1.41.23,1.7,1.2,2.88,2.58,4.87,2.81.32,0,.64.13,1,.17s.48.57,0,.51a9.09,9.09,0,0,1-2.88-.46s-.07,0-.12,0A4.64,4.64,0,0,0,55,33.67c.24.07.31.21.27.46-1.09.23-3-1.36-3.71-2.07-.95-1-1-2.51-3.41-3.17a21,21,0,0,0-4.76-.24c-.44,0-.88,0-1.31,0-1.92,0-3.62.07-5.54.19A1.88,1.88,0,0,0,37,29a2.53,2.53,0,0,1,.78.41l1.78.88a1.11,1.11,0,0,0,1.38,0A2.28,2.28,0,0,1,42.6,30c.32.06.64.1,1,.17.74.17,1.5.22,2.25.34a30.59,30.59,0,0,1,3.82,1.8c.89.41,1.76.85,2.64,1.26l2,.88c.23.1.51.15.44.53a.84.84,0,0,1-.6-.1c-1.58-.68-2.84-1.25-4.51-1.83a11.47,11.47,0,0,1-2-.86c-1.69-1-3.67-.71-5.41-1.5a.86.86,0,0,0-1.23.51c-.14,1.75,1.14,2.18,2.62,2.47a24.24,24.24,0,0,0,4.12.86,10.56,10.56,0,0,1,4,.44c.75.24,1.52.4,2.29.59s.77.81-1.17.28a12.62,12.62,0,0,0-4.5-.44,8.85,8.85,0,0,0,1,.6c1.68.8,1.93,1.9,3.87,2.54.57.19.42.69.13.57a6.19,6.19,0,0,1-2-1.07,12,12,0,0,0-4.6-2.73,13.56,13.56,0,0,0-1.48-.5c-.64-.12-1.15-.47-1.79-.26-.32.1-.07.38.07.53a22.62,22.62,0,0,1,2.22,2.75c.82,1.18.29,1.19,2,2.21.62.36,4.39,1.15,4.5,1.3s.19.51-.15.45a22.91,22.91,0,0,1-4-1,7.49,7.49,0,0,1-1.24-.61,2.93,2.93,0,0,0,1.79,1.9c.79.26,1.55.6,2.33.91.29.11.3.18.11.54-1.15-.4-2.3-.85-3.41-1.35a4.22,4.22,0,0,1-1.6-1.27,6.85,6.85,0,0,1-.85-1.66c-.43-.8-.51-.92-1.37-1.08A8.24,8.24,0,0,0,41,38.13a1.58,1.58,0,0,0,.52.68c1,.89,2,1.87,3,2.72a24.36,24.36,0,0,0,3.09,2.15c.61.35,1.56.61,2.24.91.25.11.25.18.1.55A11.2,11.2,0,0,1,47,43.82c-.55-.37-1.17-.64-1.73-1a34.47,34.47,0,0,1-4.13-3.39,16.09,16.09,0,0,1-2.26-1.77,9.7,9.7,0,0,0-1.54-1.4c-1-.76-2-1.53-3.07-2.28-.51-.37-1.42-.63-1.23.24A23.86,23.86,0,0,0,34,37a4.73,4.73,0,0,0,1.46,2.21c.81.74,1.64,1.47,2.47,2.2.1.1.25.35.41.34a3.9,3.9,0,0,1,2.76,1.09,15.78,15.78,0,0,0,3,1.85c.9.38,1-.75,2.42-.09.81.36,1.61.75,2.41,1.14.33.15.33.62-.09.51a1.1,1.1,0,0,1-.26-.14,11.74,11.74,0,0,0-2.19-1c-.56-.23-1.59.26-1,.87A25.17,25.17,0,0,0,47.44,48c.3.27.18.73-.34.39-.9-.59-2.47-1.8-3.3-2.46C42.64,45,41.54,44,40.37,43a2.62,2.62,0,0,0-1.44-.39,2.77,2.77,0,0,0,.69,1.2A36.17,36.17,0,0,0,44,48.08c.52.42,1,.89,1.47,1.35.28.27.49,1-.33.39S43,48.1,42,47.43a10,10,0,0,0,1.28,3,1.73,1.73,0,0,0,.22.31c.31.32,0,1-.39.19a19.68,19.68,0,0,1-1.53-3.37,17.66,17.66,0,0,0-2.3-3.09c-.27-.34-.5-.72-.75-1.08a35.8,35.8,0,0,0-3.94-3.8,7.88,7.88,0,0,1-1.23-2.35c-.48,2.41.28,3.59,2,5.08,2.44,2.16,2.7,4,4.58,6,.6.64.81.49,1.46,1.4.4.57.79,1.15,1.2,1.71s.09.85-.58.06c-.47-.56-.91-1.34-1.58-1.64.28.9.58,1.63.92,2.5.17.44,0,1.06-.38.31a14.63,14.63,0,0,1-.73-1.86,5.8,5.8,0,0,0-.81-1.68,21.35,21.35,0,0,0-2.61-3.46c-.66-.64-2.3-2.8-3-3.62-.44-.55-1.51-1.23-1.48-2a33.13,33.13,0,0,1,.1-3.45,2.68,2.68,0,0,0-.37-1.56,14.87,14.87,0,0,0-2.47-3.59.52.52,0,0,0-.88.35c-.13.88-.06,4.25,0,5.2.05,1.68.23,3.31,1.59,4.45.67.57,3.3,2.71,3.71,3.24,1.65,2.11,3.16,2.25,4.21,4.31A30.44,30.44,0,0,1,40,53c.07.21,0,.25-.21.42-.07,0-.14-.17-.16-.23a22,22,0,0,0-2-4,5,5,0,0,0-2.13-1.84l-.22,0c.14.42.26.84.42,1.24.22.57.49,1.12.71,1.69s.26.9.42,1.34c.31.85.69,1.68.95,2.55.07.24-.16.66-.33.29a24.68,24.68,0,0,1-1.35-3.12c-.22-.68-.6-1.32-.88-2-.7-1.62-1-3-2.3-4.37a13.92,13.92,0,0,0-2.73-2.41c.12.54.19,1,.32,1.44.3,1,.62,2,.92,3,.48,1.55.56,2.6,1.91,3.81a11.5,11.5,0,0,1,2.87,3.65c.11.2.12.25,0,.39s-.44-.46-.91-1a13.2,13.2,0,0,1-1.36-1.63c-.16-.27-.55-.71-.91-.61a1.5,1.5,0,0,0,.09.32c.57,1.09.91,2.26,1.37,3.4.13.33-.21.66-.38.28-.34-.79-.71-1.58-1-2.39A11,11,0,0,0,32,50.89a33.72,33.72,0,0,1-1.49-3.8,13.79,13.79,0,0,1-.63-2.61c-.4-2.87-1.82-2.94-2.1-5.29-.09-.76-.36-2.06-.5-2.86h0c-1.33,1.42-3.05,3.41-2.51,5.54.59,2.3.82,2.55,2.69,3.87a4.12,4.12,0,0,1,1.45,1.9,22.68,22.68,0,0,1,.93,2.93c0,.21.4,1.13.63,1.23,1,.43,2.21,2.44,2.83,3.34.21.31,0,.85-.48.14a5.64,5.64,0,0,0-1.94-2.21c-.11-.1-.24-.18-.44-.33a14.25,14.25,0,0,0,.81,2.74c.06.2.07.27-.07.36-.35.21-.44-.35-.58-.7a30.6,30.6,0,0,1-1.2-3.77,32.18,32.18,0,0,0-1.48-4c-.32-.79-.76-.79-1.47-.94a.87.87,0,0,0-.24.71A7,7,0,0,0,27,50.66a4,4,0,0,1,.72,1.62c.08.48.73,3.55.67,3.78s-.37.22-.42,0c-.15-.75-.32-1.5-.43-2.26a12.28,12.28,0,0,0-.7-2.24c-.13.08-.26.11-.3.18A6.71,6.71,0,0,0,26,52.89c-.1.34-.81,3-.89,3.07s-.45.11-.4-.16c.26-1.37.71-2.69,1.06-4a5,5,0,0,0,0-2.41c-.17-.71-.2-1.5-.36-2.22a15.66,15.66,0,0,0-.77-2.66c-.37-.81-.34-1.39-.52-1.59-.14.38-.3.76-.44,1.15a15.09,15.09,0,0,1-.76,2.08c-.52,1.2-1.23,2.29-.74,3.64s.21,2.27.95,3.87a5.5,5.5,0,0,1,.52,2.19c0,.31,0,.34-.37.34a37.18,37.18,0,0,1-1.63-5.9c-.05-.2-.08-.43-.34-.53a1.14,1.14,0,0,0-.13.31,16.24,16.24,0,0,0-.53,4.85c0,.43-.5.47-.49,0a41.58,41.58,0,0,1,.23-4.16,9.27,9.27,0,0,1,1-3A36.83,36.83,0,0,0,23,43.27a5.82,5.82,0,0,1,.55-1.51,1,1,0,0,0,.12-.41c.1-1.52.89-2.73.24-2.24a4.92,4.92,0,0,0-1.36,2,10.47,10.47,0,0,0-.82,2.23c-.28,1.06-.64,2.1-.93,3.16-.59,2.14-1.61,3.68-1.86,5.91a7.51,7.51,0,0,1-.45,2.29.3.3,0,0,1-.44.17,36.88,36.88,0,0,1,2-8.2c1.47-4.08.49-3.45,3-8,.51-.89,1.28-1.14,2-1.78A8.19,8.19,0,0,0,26.4,35.5a6.69,6.69,0,0,0,1-4.55c-.1-.46-.42-.54-.78-.23a18.71,18.71,0,0,0-3.06,3.47,17.85,17.85,0,0,0-.89,1.88c-.43.81-.81,1.66-1.31,2.44-.78,1.22-1.32,2.35-2,3.59a6.28,6.28,0,0,0-1,2.88c0,.7-.14,1.39-.12,2.09A18.89,18.89,0,0,1,18,49.73a7.84,7.84,0,0,1-1.3,3.87.34.34,0,0,1-.44.18c-.33-.25.95-.85,1-3.64A11.75,11.75,0,0,0,15,52.49c-.14.17-.29.4-.5.19s-.06-.23,0-.34a13.88,13.88,0,0,0,3-4.27,16,16,0,0,0,0-1.86,15.19,15.19,0,0,0-4.78,5.38c-.22.22-.55,0-.38-.28A18,18,0,0,1,14,48.73c.27-.3.44-.69.71-1a16.4,16.4,0,0,1,2.13-2.2,7.7,7.7,0,0,0,1.33-2.21,9.29,9.29,0,0,0,.27-.94c.26-.73.56-1.46.82-2.19s.94-2-.06-1.35a11.52,11.52,0,0,0-1.81,1.6A17.73,17.73,0,0,0,14.14,44c-.22.39-.72.89-.77,1.34a4.65,4.65,0,0,1-.45,1.5c-.23.48-.38,1-.62,1.45a12,12,0,0,1-1.26,2c-.28.09-.3-.06-.3-.28l.8-1.55c.24-.54.46-1.1.66-1.66a5.33,5.33,0,0,0,.14-.86c-.09,0-.14,0-.16,0-.82.61-1.64,1.21-2.44,1.83-.33.26-.64.89-.91.69s-.12-.28,0-.41c.35-.37.7-.75,1.07-1.1.84-.79,1.72-1.56,2.55-2.37.66-.64,2.36-2.93,3-3.75a11.54,11.54,0,0,1,4.32-3.27c.89-.26,1.69-1.59,2-2.4.27-.63.66-1.12,1-1.76-.89.15-3.94,2.65-4.91,3.3a10.63,10.63,0,0,1-3.91,2,2.53,2.53,0,0,0-1.24,1.11c-2.74,4.41-1.36,3.38-5.5,6.47-.19.14-.52.46-.72.17s.12-.38.25-.48c.64-.48,1.25-1,1.91-1.42,1.51-1,1.42-2.53,2.54-4.25a.71.71,0,0,0,.07-.21,12.35,12.35,0,0,0-1.57.71,4,4,0,0,0-1.5,1.29c-.76,1-1.45,2.07-2.22,3.07-.21.27-.58,0-.39-.27s.43-.72.67-1.08c.37-.53.75-1.06,1.11-1.62-.82.26-1.78,1.21-2.57,1.28a1.42,1.42,0,0,1-.41-.08c0-.45.71-.64,1.3-1A31.27,31.27,0,0,1,8.75,40.5c.65-.34,1.31-.66,1.95-1a29.34,29.34,0,0,1,3.78-1.74A12.82,12.82,0,0,0,17.6,36a4.66,4.66,0,0,1,.47-.3,14.1,14.1,0,0,0,2.71-2c1.51-1.32,2.68-1,4.29-3.26a7.32,7.32,0,0,0,.39-.71c-.14,0-.19,0-.24,0A10.12,10.12,0,0,0,22.64,31c-1.9,1.5-3.71,1.89-5.64,3.09-1.76,1.09-2.85,1-4.67,2.55-.67.58-1.4,1.11-2.08,1.68A27.52,27.52,0,0,1,7,40.52a7.11,7.11,0,0,1-3.24,1.12c-.24,0-.73-.24,0-.52,2.55-.94,3.72-1.25,5.91-3.06l2-1.63a.76.76,0,0,0,.19-.26c-.61.18-1.9.95-2.65,1.3s-1.39.56-2.09.8-1.73-.43-3.84.91c-.13.08-.76.52-.89.35s.06-.52.25-.65a6.36,6.36,0,0,1,3.58-1.27,9.94,9.94,0,0,0,3-1,3.23,3.23,0,0,1,.42-.2,6.4,6.4,0,0,0,1.92-1.21,25.48,25.48,0,0,0-2.76.12,13.64,13.64,0,0,0-1.68.16,7.37,7.37,0,0,0-2.4.79c-.76.43-1.49.92-2.23,1.38-.17.11-.54.49-.74.26a.31.31,0,0,1,0-.43c1.14-1.2,1.86-1.3,3.1-2.07a3.56,3.56,0,0,0-1.32.07c-.75.09-1.51.2-2.26.31-.49.07-.33-.55,0-.6a12.13,12.13,0,0,1,1.91-.35,30.61,30.61,0,0,0,3.57-.36L9,34.39c1.07,0,2.15-.07,3.22-.17a36.9,36.9,0,0,0,4.1-.61A5.65,5.65,0,0,0,17.77,33c0-.06,0-.12-.05-.13a5.31,5.31,0,0,0-1.34-.63c-.93-.22-1.85-.51-2.78-.73s-1.85-.38-2.79-.52a2.19,2.19,0,0,0-.91.1,37.87,37.87,0,0,0-6.61,2.52,11.22,11.22,0,0,1-2.39.81c-.28-.32-.26-.49.09-.66,1.81-.82,5.18-2.21,7-2.85a6.94,6.94,0,0,1,3.75-.31,1.86,1.86,0,0,0,.34,0c2.52-.05,4.32,1.17,6.52,1.15a1.71,1.71,0,0,0,.93-.25c.67-.42,1.35-.83,2-1.27a16.69,16.69,0,0,1,2.12-1.07,11.46,11.46,0,0,1-2.41.12c-2.23-.21-5-.6-7.21-.64a34.46,34.46,0,0,0-3.92.39c-.89.08-1.93,0-2.78.16-4.35.82-3.33,2-5,3L1,33.1c-.11.07-.21.16-.33,0-.3-.3.3-.69.48-.86A11.46,11.46,0,0,0,2.8,30.61a16.42,16.42,0,0,0-2.21.49c-.39.1-.52-.35-.1-.46.64-.17,1.28-.35,1.92-.51s1.47-.62,2.23-.88l0-.08L.39,29.12c-.16,0-.39.05-.39-.19s.2-.26.38-.26c.85,0,1.7,0,2.54,0A21.66,21.66,0,0,0,7.4,28.5c.51-.08,1-.09,1.56-.13,2.51-.19,4.46-.34,7-.32.34,0,.67.08,1,.08.73,0,1.47,0,2.2,0a9.33,9.33,0,0,0,2.24-.1A14.46,14.46,0,0,0,17,26.5c-.61-.11-1.09-.5-1.74-.47l-3.42.15a28.76,28.76,0,0,1-3.47.13c-3.16-.23-4.2,1.24-7.89,1.51-.56,0-.49-.56.36-.6a7.4,7.4,0,0,0,3-.72c.52-.26.88-.25,1.5-.57A22.81,22.81,0,0,0,.74,23.88a.41.41,0,0,1-.3-.43c0-.16.2-.12.33-.07.49.17,1,.36,1.47.53a9,9,0,0,1,1.68.56,8.66,8.66,0,0,0,3.4,1.13,15.81,15.81,0,0,0,3.37.06,11.61,11.61,0,0,1,1.18,0,24.68,24.68,0,0,0,2.55-.24l-3.78-1.78A4.23,4.23,0,0,0,9,23.22a16.58,16.58,0,0,1-3.22-.48c-1.55-.35-3.11-.59-4.66-.93-.38-.09-.27-.56.1-.48s.76.19,1.15.27l3.13.57c.76.14,1.52.31,2.28.44.39.06.79.06,1.28.09a1.24,1.24,0,0,0-.22-.19C7.56,21.8,6.32,21.06,5,20.4c-1-.51-2.08-.81-3.11-1.22-.45-.18-.31-.62.05-.49,1,.34,1.9.65,2.83,1a13.71,13.71,0,0,1,1.46.79,28.08,28.08,0,0,0,3.56,1.77A21.79,21.79,0,0,1,13,23.82c.2.11.38.25.58.35.54.26,2,1,2.54,1.18,1.5.49,3,1,4.51,1.48a16.61,16.61,0,0,0,4.2.75,2.12,2.12,0,0,0,1.29-.17,1.06,1.06,0,0,0-.22-.3,15,15,0,0,1-1.56-1.42,9.32,9.32,0,0,0-1.62-1.08,14.75,14.75,0,0,0-3.29-.2,6.72,6.72,0,0,1-2.93-.53c-1.48-.63-3-1.13-4.52-1.71S9.06,20,6.46,19.24c-.57-.17-4.06-1.3-4.33-1.92,0-.11,0-.43.46-.16A8.87,8.87,0,0,0,6.08,18.3c-.54-.34-3.28-2-3.34-2.05A.24.24,0,0,1,3,15.87c.14,0,3.59,2.12,4.07,2.52a40.61,40.61,0,0,0,4.35,2.72,21,21,0,0,0,3.82,1.61,16.16,16.16,0,0,0,5.13.72c1.53.09-.82-.89-1.07-1-1-.45-5.05-.6-8.61-2.7-.91-.54-1.8-1.13-2.75-1.59L6.6,17.51c-.17-.09-.33-.22-.51-.3-1-.45-1.82-1.2-2.78-1.72A.26.26,0,0,1,3.53,15c.61.27,1.94,1.43,2.37,1.54a8.08,8.08,0,0,1,1.56.77,28.82,28.82,0,0,1,2.81,1.47,11.49,11.49,0,0,0,3,1.5,4.76,4.76,0,0,1,.7.3,7.51,7.51,0,0,0,3.62.62s0-.08,0-.1c-1.29-1.42-2.85-3.38-4.51-4.35-1.11-.65-1.61.53-3.88-.22a8.54,8.54,0,0,0-1.85-.42A3.74,3.74,0,0,1,6,15.75c-.52-.27-1.09-.47-1.62-.73a3.9,3.9,0,0,1-.59-.41c-.27-.2,0-.62.32-.38,1.52,1.07,3.42,1.26,5.18,1.63a3.85,3.85,0,0,0,2.55,0c-.3-.15-.52-.27-.74-.36L6.48,13.65c-.48-.18-1-.35-1.42-.55a3.36,3.36,0,0,1-.56-.43l.29-.32a10,10,0,0,0,2.55,1.09c2.21.92,3.89,1.46,6.08,2.59A9.25,9.25,0,0,1,15.93,18c3.14,3.35,2.43,2.9,6.36,4.86l.94.45a26.68,26.68,0,0,0-2.36-3.73c-.64-.91-2.09-2.45-3.34-2.39a2.34,2.34,0,0,1-1.26-.31c-.65-.36-1.34-.67-2-1A30.22,30.22,0,0,0,9.9,13.5c-.37-.14-.7-.38-1.06-.53-1-.41-2.06-.72-3-1.19-.33-.16-.09-.64.25-.51a1.66,1.66,0,0,1,.31.12c.8.5,1.78.53,2.58,1L9,12.35c-.82-.73-1.32-1.1-2.2-1.76-.43-.31-.08-.78.33-.46.2.16.38.34.58.5l1.35,1c.66.5,1.28,1,2,1.5A51.16,51.16,0,0,0,15.86,16c.25.11.52.18.78.27l0-.08a15.18,15.18,0,0,1-2.51-2.37,8.14,8.14,0,0,0-1.38-1.49c-.6-.49-1.14-1.07-1.71-1.6L8.53,8.39c-.14-.39.06-.52.28-.39s2.6,2.41,3.08,2.85.75.6,1.19,1a2.36,2.36,0,0,0,0-.26c-.22-.63-.41-1.27-.67-1.88a20.76,20.76,0,0,1-1.11-3.31c-.08-.32-.14-.65.26-.9a12.71,12.71,0,0,1,.58,2.09c.22.93.75,1.26,1.36,1.89a7,7,0,0,0,2.24,1.36,3.34,3.34,0,0,0,.39.09L14.69,7.82a24.53,24.53,0,0,1-1.38-3.07,1.94,1.94,0,0,1-.05-.49c.3-.08.39.1.47.29a26.39,26.39,0,0,0,1.49,2.9l.1,0-.57-3.67c0-.23.05-.35.3-.38a2.24,2.24,0,0,1,.27,1l.45,2.48c.19.95.4,1.89.58,2.84A9.66,9.66,0,0,0,18.16,13a1.6,1.6,0,0,0,.1-.37c0-.66.06-1.33.12-2A5,5,0,0,0,18.17,9C17.72,7.1,16,5,15.78,3.36c0-.13-.09-.47.11-.49,0,0,.24.08.26.16a11.16,11.16,0,0,0,1.43,3.26c.5.93.88,1.91,1.3,2.87a27.13,27.13,0,0,1,.45,4.44c.07.92.51.85,1.12,1.79a5,5,0,0,0,1.14,1.19c1,.74,1.95,1.46,2.9,2.22.33.27.58.62.91.9.11-.92-1.32-3.09-1.8-3.82-.91-1.39-2.12-1.49-2.75-3.28a38.35,38.35,0,0,0-2.06-5.81c-.33-.57-.71-1.1-1-1.66S17.1,4,16.81,3.36a1,1,0,0,1-.11-.87c.24,0,.29.17.34.32.68,2.05,2.06,3,2.93,5.6.38,1.13.85,2.23,1.26,3.36a3.68,3.68,0,0,0,1.83,2h.14C22.14,11,20.8,8.38,19.55,5.69,19,4.5,18.56,3.27,18,2.07c-.13-.29.26-.43.38-.14a52.37,52.37,0,0,0,2.39,5.14l.75,1.79h.11A7.79,7.79,0,0,0,21.47,6C21.06,4,20.4,3.09,20,1.48c0-.08.06-.17.09-.26.24.1.3.1.39.35a21,21,0,0,0,1.06,2.58A25.6,25.6,0,0,1,22.17,1,.68.68,0,0,1,22.53.5a.28.28,0,0,1,.14.37,16.92,16.92,0,0,0-.4,2.74,18.45,18.45,0,0,0,.11,4,22.54,22.54,0,0,0,.39,3.56,3.88,3.88,0,0,0,.6,1.29,9.08,9.08,0,0,0,.33-1.2q.18-1.34.27-2.67c0-.43-.22-1-.23-1.51V2c0-.42,0-.85,0-1.28s.4-.38.43,0c.09,1,0,3.21.19,3.94.09-.16.16-.26.21-.37A36.35,36.35,0,0,0,25.86.57a.25.25,0,1,1,.5,0c0,.25-1.26,3.77-1.44,4.28a8.44,8.44,0,0,0-.4,2.73c0,.84,0,1.68-.09,2.51a12.79,12.79,0,0,0,.06,4.49,6.87,6.87,0,0,0,.71,1.89c.05-.09.08-.12.08-.16,0-1.45.7-2.8.71-4.27a28.64,28.64,0,0,1,.64-6.14A26.16,26.16,0,0,0,26.85,2c0-.46.11-.91.18-1.36.1-.72.55-.49.48-.11a8.22,8.22,0,0,0,0,1.92c0,.49,0,1,0,1.52.05,0,.09,0,.1-.08.26-.69.52-1.38.76-2.08.1-.29.08-.62.17-.91s.13-.35.18-.52A.5.5,0,0,1,29.19,0a.31.31,0,0,1,.11.4c-.21.63-.41,1.27-.63,1.89A31.4,31.4,0,0,0,27.5,5.8,11.6,11.6,0,0,0,27,8.51c.06,0,.1,0,.12-.08,1.16-1.48,2.31-2.8,2.37-4.79A16.1,16.1,0,0,1,29.93.23a.19.19,0,0,1,.35.09L30,2.47c-.06.66-.09,1.33-.13,2,.16-.06.2-.22.25-.35.55-1.36,1.41-1.84,1.74-3.38.07-.33.06-.33.41-.33a.74.74,0,0,1,0,.68c-.33.72-1.19,2.59-1.51,3.15C30,5.54,29.18,6.79,28.4,8.07a11.25,11.25,0,0,0-1.32,3.13,1.18,1.18,0,0,0,0,.2c0,1.34-.36,2.65-.27,4,.06,1.06-.35,3.25-.15,4a2.34,2.34,0,0,0,.12.4A31,31,0,0,1,28.29,24c.05.16.07.33.12.49s.15.39.25.65a1.25,1.25,0,0,0,.42-1c0-2.89-1.59-5.94-1.09-7.4s.36-3.1.85-4.48a6.21,6.21,0,0,0,.2-.74,22.62,22.62,0,0,1,2.15-5.22A12.58,12.58,0,0,0,32,4.18c.3-1,.65-2,1-3,.12-.34.54-.4.4.09-.29.94-.52,1.88-.78,2.81l.06,0c1-1.12,1.68-1.8,2.77-2.86.26-.24.62.05.3.36a34.47,34.47,0,0,0-3.57,4.14c-.47,1-.91,2-1.36,3l.08.06a37.57,37.57,0,0,0,2.82-3.09A27.83,27.83,0,0,1,35.31,3.4c1.13-1.12,1.17-2,1.59-1.86.16.08.17.21,0,.48a51.81,51.81,0,0,1-6.35,8.2,3.28,3.28,0,0,0-.69,1.35,23.21,23.21,0,0,0-1,5.1c0,.23-.08.45-.07.68A10.21,10.21,0,0,0,28.93,19c.09.43.64,3,.8,3.31s.41.32.6.05A7.53,7.53,0,0,0,31,21.28a.84.84,0,0,0,0-.49c-.69-2.85-1.34-4.31-.49-7.37A3.85,3.85,0,0,1,31.21,12c1.21-1.46,3.52-5,4.59-6.64.46-.72.87-1.47,1.29-2.22a2.93,2.93,0,0,1,.74-1Zm6.26,35.53,0-.09c-.23-.34-.47-.67-.69-1A9.53,9.53,0,0,0,42,34.71a18,18,0,0,0-3.67-2.86,15.7,15.7,0,0,0-3-1.47c-.69-.22-1.33-.56-2-.77a12.26,12.26,0,0,0-2.57-.18c-.5,0-.86.59-.09,1.27a37.74,37.74,0,0,0,3.95,2.7c.35.24.66.53,1,.78.66.47,2.86,1.92,3.35,2.39,1.24,1.2,2.54.53,4.34.94.25.06.48.14.72.21ZM13,9.55l-.1.08L14,12.33a9.16,9.16,0,0,0,2.1,2.49,31.14,31.14,0,0,0,2.57,1.87,15.25,15.25,0,0,1,5.18,5.11C25,24,24.81,24,26.62,25.36c.17.12.34.27.62.14a1.31,1.31,0,0,0,0-.39c-.19-.75-.45-1.49-.59-2.26a3.4,3.4,0,0,0-1.22-2A54.45,54.45,0,0,0,21,17.2C18.86,16,17.81,13,17.13,12.58c-.88-.56-3-1.69-3.58-2.47A4.23,4.23,0,0,0,13,9.55Z" transform="translate(0)" fill="#ffc10e" fill-rule="evenodd"/><g style="mix-blend-mode:multiply"><path d="M50.74,25.48V43.42l-3,3.07H33.09L30,43.42V36.86l.46-.46h5.17l.46.46v3.49l.76.77h7l.76-.77V25.48l.46-.46h5.17Z" transform="translate(0)" fill="#5dade0"/><path d="M73.87,28.09V46l-.45.46H68.24L67.79,46V45l-8.53-6.34V46l-.45.46H53.63L53.18,46V28.09l3-3.07H70.83Zm-6.08,3.06L67,30.39H60l-.76.76v1l8.53,6.34Z" transform="translate(0)" fill="#5dade0"/><path d="M82.37,46.15l-.52.34H76.77L76.31,46V25.48l.46-.46h5.17l.46.46V36.55L88.33,29l5.94,7.54V25.48l.45-.46H99.9l.45.46V46l-.45.46H94.78l-.51-.34L88.3,38Z" transform="translate(0)" fill="#5dade0"/><path d="M123.49,28.09V46l-.46.46h-5.17L117.4,46V45l-8.52-6.34V46l-.46.46h-5.17l-.46-.46V28.09l3-3.07h14.61Zm-6.09,3.06-.76-.76h-7l-.76.76v1l8.52,6.34Z" transform="translate(0)" fill="#5dade0"/><path d="M126.38,25h17.19l3.05,3.07V33.7l-3.05,3.13V37l3.05,3.1V46l-.46.46H141l-.46-.46v-5.8l-.76-.77H132V46l-.46.46h-5.17l-.46-.46V34.1h13.85l.76-.77V31.15l-.76-.76H125.92V25.48Z" transform="translate(0)" fill="#5dade0"/><path d="M169.75,28.09V46l-.46.46h-5.17l-.46-.46V45l-8.52-6.34V46l-.46.46h-5.17l-.46-.46V28.09l3-3.07h14.61Zm-6.09,3.06-.76-.76h-7l-.76.76v1l8.52,6.34Z" transform="translate(0)" fill="#5dade0"/><path d="M41.76,65H36.13v6.56l-.46.46H30.5L30,71.58V51l.46-.46h5.17l.46.46v8.61h5.63l2.89-2.6v-6.2l.46-.46h5.17l.46.46v8.31l-4,3.13v.18l4,3.1v6l-.46.46H45.11l-.46-.46v-4Z" transform="translate(0)" fill="#5dade0"/><path d="M73.87,53.64V71.58l-.45.46H68.24l-.45-.46v-1l-8.53-6.35v7.39l-.45.46H53.63l-.45-.46V53.64l3-3.06H70.83Zm-6.08,3.07L67,55.94H60l-.76.77v1L67.79,64Z" transform="translate(0)" fill="#5dade0"/><path d="M98.22,51V71.58l-.45.46H92.59l-.45-.46V64H82.4v7.6l-.46.46H76.77l-.46-.46V51l.46-.46h5.17l.46.46v7.57h9.74V51l.45-.46h5.18Z" transform="translate(0)" fill="#5dade0"/><path d="M101.12,50.58h5.17l.46.46V71.58l-.46.46h-5.17l-.46-.46V51Z" transform="translate(0)" fill="#5dade0"/><path d="M129.88,51V69l-3,3.07H112.22l-3-3.07V62.41l.46-.46h5.17l.46.46v3.5l.76.76h7l.76-.76V51l.46-.46h5.17Z" transform="translate(0)" fill="#5dade0"/><path d="M132.77,50.58h5.17l.46.46V71.58l-.46.46h-5.17l-.46-.46V51Z" transform="translate(0)" fill="#5dade0"/></g><path d="M58.88,15.61h.33a.7.7,0,0,0,.28,0,.37.37,0,0,0,.19-.15l2.19-2.49a.67.67,0,0,1,.19-.16.54.54,0,0,1,.24,0h.76l-2.5,2.85-.18.18a.76.76,0,0,1-.19.12.84.84,0,0,1,.23.12l.2.21,2.61,3.13h-.91l-.11,0a.21.21,0,0,1-.08-.06l-.07-.08-2.27-2.62-.09-.1-.1-.06-.14,0h-.58v3H58V12.71h.89Z" transform="translate(0)" fill="#5dade0"/><path d="M65.72,14.57a2.25,2.25,0,0,1,.92.18,1.83,1.83,0,0,1,.7.48,2.11,2.11,0,0,1,.44.76,3.38,3.38,0,0,1,0,2,2.11,2.11,0,0,1-.44.76,1.83,1.83,0,0,1-.7.48,2.55,2.55,0,0,1-1.83,0,1.83,1.83,0,0,1-.7-.48,2.13,2.13,0,0,1-.45-.76,3.38,3.38,0,0,1,0-2,2.13,2.13,0,0,1,.45-.76,1.83,1.83,0,0,1,.7-.48A2.24,2.24,0,0,1,65.72,14.57Zm0,4.18a1.2,1.2,0,0,0,1-.47A2.13,2.13,0,0,0,67.09,17a2.14,2.14,0,0,0-.34-1.3,1.2,1.2,0,0,0-1-.47,1.4,1.4,0,0,0-.6.12,1.21,1.21,0,0,0-.43.35,1.65,1.65,0,0,0-.26.55,3.38,3.38,0,0,0-.08.75,3.29,3.29,0,0,0,.08.74,1.65,1.65,0,0,0,.26.55,1.21,1.21,0,0,0,.43.35A1.4,1.4,0,0,0,65.72,18.75Z" transform="translate(0)" fill="#5dade0"/><path d="M68.94,20.91V14.65h.49a.22.22,0,0,1,.22.17l.06.55a2.47,2.47,0,0,1,.68-.58A1.86,1.86,0,0,1,72,14.72a1.43,1.43,0,0,1,.55.46,2.18,2.18,0,0,1,.36.75A4,4,0,0,1,73,17a3,3,0,0,1-.14,1,2.33,2.33,0,0,1-.39.77,1.73,1.73,0,0,1-.63.51,1.79,1.79,0,0,1-.84.19,1.84,1.84,0,0,1-.74-.14,1.76,1.76,0,0,1-.53-.41v2.07ZM71,15.23a1.33,1.33,0,0,0-.7.18,2,2,0,0,0-.55.53V18.2a1.32,1.32,0,0,0,.49.43,1.46,1.46,0,0,0,.6.12,1.15,1.15,0,0,0,1-.46A2.24,2.24,0,0,0,72.19,17a3.56,3.56,0,0,0-.08-.79,1.69,1.69,0,0,0-.23-.54.88.88,0,0,0-.37-.3A1.18,1.18,0,0,0,71,15.23Z" transform="translate(0)" fill="#5dade0"/><path d="M75.83,14.57a1.92,1.92,0,0,1,.77.15,1.58,1.58,0,0,1,.61.4,1.83,1.83,0,0,1,.4.66,2.44,2.44,0,0,1,.15.89.63.63,0,0,1,0,.25.17.17,0,0,1-.16.07H74.47a2.89,2.89,0,0,0,.12.77,1.72,1.72,0,0,0,.31.55,1.2,1.2,0,0,0,.45.32,1.46,1.46,0,0,0,.6.11,1.7,1.7,0,0,0,.53-.07l.38-.15.27-.16a.32.32,0,0,1,.18-.07.19.19,0,0,1,.16.08l.23.3a1.59,1.59,0,0,1-.36.32,2.35,2.35,0,0,1-.45.22,2.17,2.17,0,0,1-.5.13,2.94,2.94,0,0,1-.51.05,2.35,2.35,0,0,1-.89-.17,1.76,1.76,0,0,1-.7-.48,2.3,2.3,0,0,1-.46-.78,3.21,3.21,0,0,1-.16-1.07,2.71,2.71,0,0,1,.15-.91,2.23,2.23,0,0,1,.42-.74,2,2,0,0,1,.69-.49A2.19,2.19,0,0,1,75.83,14.57Zm0,.61a1.25,1.25,0,0,0-.93.34,1.71,1.71,0,0,0-.42,1H77A1.78,1.78,0,0,0,77,16a1.18,1.18,0,0,0-.23-.41,1.26,1.26,0,0,0-.37-.27A1.31,1.31,0,0,0,75.85,15.18Z" transform="translate(0)" fill="#5dade0"/><path d="M78.8,19.32V14.65h.47a.28.28,0,0,1,.18,0,.3.3,0,0,1,.07.17l0,.73a2.21,2.21,0,0,1,.59-.76,1.3,1.3,0,0,1,.82-.27,1.25,1.25,0,0,1,.35,0,1.26,1.26,0,0,1,.29.12l-.11.62a.13.13,0,0,1-.14.11.58.58,0,0,1-.19,0,1.25,1.25,0,0,0-.38-.05,1.08,1.08,0,0,0-.71.25,1.93,1.93,0,0,0-.48.73v3Z" transform="translate(0)" fill="#5dade0"/><path d="M85.72,19.32h-.36a.5.5,0,0,1-.19,0,.24.24,0,0,1-.1-.16L85,18.7a4.11,4.11,0,0,1-.35.29,2.06,2.06,0,0,1-.37.23,2,2,0,0,1-.41.13,2.44,2.44,0,0,1-.48,0,1.7,1.7,0,0,1-.51-.08,1.18,1.18,0,0,1-.41-.23,1.08,1.08,0,0,1-.28-.38,1.4,1.4,0,0,1-.1-.56,1,1,0,0,1,.15-.53,1.29,1.29,0,0,1,.49-.46,3.39,3.39,0,0,1,.88-.33,6.29,6.29,0,0,1,1.33-.12v-.37a1.25,1.25,0,0,0-.23-.83.81.81,0,0,0-.68-.28,1.41,1.41,0,0,0-.5.08,1.5,1.5,0,0,0-.36.17l-.25.17a.4.4,0,0,1-.22.07.23.23,0,0,1-.14,0,.35.35,0,0,1-.1-.11l-.15-.26a2.7,2.7,0,0,1,.83-.56,2.64,2.64,0,0,1,1-.18,1.85,1.85,0,0,1,.69.12,1.57,1.57,0,0,1,.51.36,1.53,1.53,0,0,1,.31.56,2.37,2.37,0,0,1,.1.72Zm-2.11-.5a1.61,1.61,0,0,0,.39,0,1.4,1.4,0,0,0,.34-.13,1.89,1.89,0,0,0,.3-.19,2.37,2.37,0,0,0,.28-.27v-1a5.19,5.19,0,0,0-1,.07,2.67,2.67,0,0,0-.65.19,1.06,1.06,0,0,0-.36.27.66.66,0,0,0-.11.36.79.79,0,0,0,.06.32.73.73,0,0,0,.16.22.9.9,0,0,0,.24.12A1,1,0,0,0,83.61,18.82Z" transform="translate(0)" fill="#5dade0"/><path d="M89.62,15.42a.18.18,0,0,1-.17.1.37.37,0,0,1-.16,0l-.21-.11-.3-.12a1.64,1.64,0,0,0-.41-.05,1.38,1.38,0,0,0-.37.05.92.92,0,0,0-.28.15.62.62,0,0,0-.25.48.44.44,0,0,0,.11.3.79.79,0,0,0,.27.2,2.72,2.72,0,0,0,.38.16l.45.14.44.17a1.6,1.6,0,0,1,.38.23,1,1,0,0,1,.38.82,1.64,1.64,0,0,1-.11.6,1.45,1.45,0,0,1-.34.48,1.64,1.64,0,0,1-.55.31,2.19,2.19,0,0,1-.75.12,2.42,2.42,0,0,1-.88-.16,2.11,2.11,0,0,1-.67-.41l.19-.31a.28.28,0,0,1,.09-.1.23.23,0,0,1,.13,0,.27.27,0,0,1,.17.07l.23.14a1.51,1.51,0,0,0,.31.14,1.29,1.29,0,0,0,.47.07,1,1,0,0,0,.41-.07.86.86,0,0,0,.3-.16.72.72,0,0,0,.18-.25.71.71,0,0,0,0-.29.47.47,0,0,0-.1-.32.84.84,0,0,0-.27-.22,2.42,2.42,0,0,0-.39-.16l-.44-.14a4.13,4.13,0,0,1-.45-.17,1.36,1.36,0,0,1-.38-.24,1,1,0,0,1-.28-.35,1.13,1.13,0,0,1-.1-.51,1.26,1.26,0,0,1,.11-.51,1.25,1.25,0,0,1,.32-.44,1.53,1.53,0,0,1,.52-.29,1.9,1.9,0,0,1,.7-.12,2.14,2.14,0,0,1,.82.15,2.05,2.05,0,0,1,.63.4Z" transform="translate(0)" fill="#5dade0"/><path d="M92,13.18a.51.51,0,0,1,0,.22.5.5,0,0,1-.13.19.59.59,0,0,1-.18.13.59.59,0,0,1-.23,0,.54.54,0,0,1-.22,0,.59.59,0,0,1-.18-.13.5.5,0,0,1-.13-.19.51.51,0,0,1,0-.22.59.59,0,0,1,0-.23.59.59,0,0,1,.13-.19.57.57,0,0,1,.18-.12.54.54,0,0,1,.22-.05.59.59,0,0,1,.23.05.57.57,0,0,1,.18.12A.59.59,0,0,1,92,13,.59.59,0,0,1,92,13.18Zm-.19,1.47v4.67H91V14.65Z" transform="translate(0)" fill="#5dade0"/><path d="M96.16,15.61h.33a.7.7,0,0,0,.28,0,.37.37,0,0,0,.19-.15l2.19-2.49a.67.67,0,0,1,.19-.16.54.54,0,0,1,.24,0h.76l-2.5,2.85-.18.18a.76.76,0,0,1-.19.12.71.71,0,0,1,.23.12l.2.21,2.61,3.13H99.6l-.11,0a.21.21,0,0,1-.08-.06l-.07-.08-2.27-2.62-.09-.1-.1-.06-.14,0h-.58v3h-.89V12.71h.89Z" transform="translate(0)" fill="#5dade0"/><path d="M102.4,16.85v2.47h-.89V12.71h1.94a3.48,3.48,0,0,1,1.08.15,1.91,1.91,0,0,1,.76.41,1.61,1.61,0,0,1,.46.64,2.33,2.33,0,0,1,.14.85,2.06,2.06,0,0,1-.16.84,1.71,1.71,0,0,1-.46.66,2.32,2.32,0,0,1-.77.44,3.41,3.41,0,0,1-1,.15Zm0-.71h1a2,2,0,0,0,.67-.1,1.33,1.33,0,0,0,.49-.29,1.19,1.19,0,0,0,.3-.43,1.69,1.69,0,0,0,.1-.56,1.28,1.28,0,0,0-.39-1,1.67,1.67,0,0,0-1.17-.35h-1Z" transform="translate(0)" fill="#5dade0"/><path d="M106.28,14.65h.65a.28.28,0,0,1,.16,0,.27.27,0,0,1,.09.12l.89,3,.06.32c0,.1,0,.21.06.31,0-.1,0-.21.08-.31s.06-.21.1-.32l1-3a.18.18,0,0,1,.08-.11.19.19,0,0,1,.14,0h.36a.2.2,0,0,1,.15,0,.23.23,0,0,1,.08.11l1,3,.09.32c0,.1.05.2.07.31l.06-.32c0-.11,0-.22.08-.31l.91-3a.2.2,0,0,1,.08-.12.23.23,0,0,1,.15,0h.62l-1.5,4.67H111c-.08,0-.13-.05-.16-.15l-1-3.17a.9.9,0,0,1-.06-.22c0-.07,0-.14,0-.21s0,.14,0,.21l-.06.22-1,3.17a.2.2,0,0,1-.19.15h-.61Z" transform="translate(0)" fill="#5dade0"/><path d="M115.8,19.32V12.71h2.1a4,4,0,0,1,1,.12,2,2,0,0,1,.72.34,1.37,1.37,0,0,1,.42.54,1.9,1.9,0,0,1,.13.73,1.26,1.26,0,0,1-.08.47,1.41,1.41,0,0,1-.22.42,1.62,1.62,0,0,1-.39.34,1.93,1.93,0,0,1-.54.25,2,2,0,0,1,1.08.52,1.37,1.37,0,0,1,.37,1,1.92,1.92,0,0,1-.15.77,1.63,1.63,0,0,1-.45.59,2,2,0,0,1-.73.39,3.21,3.21,0,0,1-1,.13Zm.89-3.65h1.18a2.14,2.14,0,0,0,.65-.08,1.36,1.36,0,0,0,.45-.23,1,1,0,0,0,.27-.36,1.14,1.14,0,0,0,.09-.46,1,1,0,0,0-.35-.85,1.75,1.75,0,0,0-1.08-.27h-1.21Zm0,.64v2.3h1.42a2.54,2.54,0,0,0,.66-.08,1.24,1.24,0,0,0,.44-.25.89.89,0,0,0,.26-.38,1.28,1.28,0,0,0,.09-.48,1,1,0,0,0-.36-.81,1.69,1.69,0,0,0-1.09-.3Z" transform="translate(0)" fill="#5dade0"/><path d="M122.79,19.32h-.89V12.71h.89Z" transform="translate(0)" fill="#5dade0"/><path d="M127.29,16.85v2.47h-.89V12.71h1.94a3.54,3.54,0,0,1,1.09.15,2,2,0,0,1,.76.41,1.69,1.69,0,0,1,.45.64,2.34,2.34,0,0,1,.15.85,2.24,2.24,0,0,1-.16.84,1.85,1.85,0,0,1-.47.66,2.22,2.22,0,0,1-.77.44,3.32,3.32,0,0,1-1,.15Zm0-.71h1A1.93,1.93,0,0,0,129,16a1.25,1.25,0,0,0,.49-.29,1.19,1.19,0,0,0,.3-.43,1.47,1.47,0,0,0,.1-.56,1.28,1.28,0,0,0-.39-1,1.67,1.67,0,0,0-1.17-.35h-1Z" transform="translate(0)" fill="#5dade0"/><path d="M131.78,19.32V14.65h.47a.26.26,0,0,1,.18,0,.25.25,0,0,1,.07.17l.06.73a2.19,2.19,0,0,1,.58-.76,1.33,1.33,0,0,1,.83-.27,1.29,1.29,0,0,1,.35,0,1.18,1.18,0,0,1,.28.12l-.1.62a.14.14,0,0,1-.14.11.63.63,0,0,1-.2,0,1.18,1.18,0,0,0-.37-.05,1.06,1.06,0,0,0-.71.25,1.93,1.93,0,0,0-.48.73v3Z" transform="translate(0)" fill="#5dade0"/><path d="M137.35,14.57a2.25,2.25,0,0,1,.92.18,1.9,1.9,0,0,1,.7.48,2.27,2.27,0,0,1,.44.76,3.38,3.38,0,0,1,0,2,2.27,2.27,0,0,1-.44.76,1.9,1.9,0,0,1-.7.48,2.43,2.43,0,0,1-.92.17,2.47,2.47,0,0,1-.92-.17,1.87,1.87,0,0,1-.69-.48,2,2,0,0,1-.45-.76,3.38,3.38,0,0,1,0-2,2,2,0,0,1,.45-.76,1.87,1.87,0,0,1,.69-.48A2.29,2.29,0,0,1,137.35,14.57Zm0,4.18a1.2,1.2,0,0,0,1-.47,2.2,2.2,0,0,0,.34-1.29,2.21,2.21,0,0,0-.34-1.3,1.2,1.2,0,0,0-1-.47,1.4,1.4,0,0,0-.6.12,1.13,1.13,0,0,0-.43.35,1.65,1.65,0,0,0-.26.55A3.38,3.38,0,0,0,136,17a3.29,3.29,0,0,0,.08.74,1.65,1.65,0,0,0,.26.55,1.13,1.13,0,0,0,.43.35A1.4,1.4,0,0,0,137.35,18.75Z" transform="translate(0)" fill="#5dade0"/><path d="M139.86,14.65h.67a.25.25,0,0,1,.16,0,.22.22,0,0,1,.09.12l1.18,3a2.07,2.07,0,0,1,.1.33c0,.11.05.22.07.33,0-.11.05-.22.08-.33s.06-.22.1-.33l1.19-3a.27.27,0,0,1,.09-.12.24.24,0,0,1,.16,0h.63l-1.89,4.67h-.73Z" transform="translate(0)" fill="#5dade0"/><path d="M144.27,18.82a.59.59,0,0,1,0-.23.57.57,0,0,1,.12-.18.46.46,0,0,1,.18-.13.59.59,0,0,1,.23-.05.54.54,0,0,1,.22.05.59.59,0,0,1,.19.13.57.57,0,0,1,.12.18.59.59,0,0,1,0,.23.51.51,0,0,1,0,.22.51.51,0,0,1-.31.31.54.54,0,0,1-.22,0,.59.59,0,0,1-.23,0,.57.57,0,0,1-.18-.12.76.76,0,0,1-.12-.19A.51.51,0,0,1,144.27,18.82Z" transform="translate(0)" fill="#5dade0"/><path d="M150.84,17a3.35,3.35,0,0,1-.13,1,2,2,0,0,1-.4.74,1.81,1.81,0,0,1-.65.47,2.38,2.38,0,0,1-.88.16,3.86,3.86,0,0,1-.93-.13l0-.27a2.46,2.46,0,0,1,0-.26.23.23,0,0,1,.06-.12.16.16,0,0,1,.14-.05.69.69,0,0,1,.22,0,1.31,1.31,0,0,0,.37,0,1.53,1.53,0,0,0,.54-.09,1,1,0,0,0,.4-.29,1.18,1.18,0,0,0,.24-.49,2.63,2.63,0,0,0,.09-.72V12.71h.88Z" transform="translate(0)" fill="#5dade0"/><path d="M155.72,19.32h-.36a.5.5,0,0,1-.19,0,.24.24,0,0,1-.1-.16L155,18.7a3.05,3.05,0,0,1-.36.29,2,2,0,0,1-.36.23,2,2,0,0,1-.41.13,2.46,2.46,0,0,1-.49,0,1.59,1.59,0,0,1-.5-.08,1.09,1.09,0,0,1-.41-.23,1.08,1.08,0,0,1-.28-.38,1.4,1.4,0,0,1-.1-.56,1,1,0,0,1,.15-.53,1.29,1.29,0,0,1,.49-.46,3.25,3.25,0,0,1,.88-.33,6.29,6.29,0,0,1,1.33-.12v-.37a1.3,1.3,0,0,0-.23-.83.82.82,0,0,0-.69-.28,1.5,1.5,0,0,0-.5.08,1.63,1.63,0,0,0-.35.17l-.26.17a.35.35,0,0,1-.21.07.23.23,0,0,1-.14,0,.26.26,0,0,1-.1-.11l-.15-.26a2.44,2.44,0,0,1,1.82-.74,1.88,1.88,0,0,1,.69.12,1.57,1.57,0,0,1,.51.36,1.69,1.69,0,0,1,.31.56,2.37,2.37,0,0,1,.1.72Zm-2.11-.5a1.61,1.61,0,0,0,.39,0,1.4,1.4,0,0,0,.34-.13,2.49,2.49,0,0,0,.3-.19,2.37,2.37,0,0,0,.28-.27v-1a5.31,5.31,0,0,0-1,.07,2.72,2.72,0,0,0-.64.19,1.06,1.06,0,0,0-.36.27.66.66,0,0,0-.11.36.79.79,0,0,0,.06.32.6.6,0,0,0,.16.22.9.9,0,0,0,.24.12A1,1,0,0,0,153.61,18.82Z" transform="translate(0)" fill="#5dade0"/><path d="M157,19.32V12.53h.82v2.79a2.44,2.44,0,0,1,.66-.54,1.7,1.7,0,0,1,.85-.21,1.74,1.74,0,0,1,.73.16,1.51,1.51,0,0,1,.56.45,2.17,2.17,0,0,1,.35.75,4,4,0,0,1,.12,1,3,3,0,0,1-.14,1,2.33,2.33,0,0,1-.39.77,1.73,1.73,0,0,1-.63.51,1.79,1.79,0,0,1-.84.19,1.54,1.54,0,0,1-.77-.18,1.57,1.57,0,0,1-.54-.49l-.05.43a.19.19,0,0,1-.21.17Zm2.07-4.09a1.33,1.33,0,0,0-.7.18,2,2,0,0,0-.55.53V18.2a1.37,1.37,0,0,0,.48.43,1.46,1.46,0,0,0,.6.12,1.16,1.16,0,0,0,1-.46,2.24,2.24,0,0,0,.35-1.33,3.56,3.56,0,0,0-.08-.79,1.49,1.49,0,0,0-.23-.54.88.88,0,0,0-.37-.3A1.18,1.18,0,0,0,159.06,15.23Z" transform="translate(0)" fill="#5dade0"/><path d="M165.49,19.32h-.36a.56.56,0,0,1-.2,0,.23.23,0,0,1-.09-.16l-.09-.43a4.16,4.16,0,0,1-.36.29,2.06,2.06,0,0,1-.37.23,1.64,1.64,0,0,1-.41.13,2.28,2.28,0,0,1-.48,0,1.7,1.7,0,0,1-.51-.08,1.27,1.27,0,0,1-.41-.23,1.19,1.19,0,0,1-.27-.38,1.4,1.4,0,0,1-.11-.56,1,1,0,0,1,.15-.53,1.46,1.46,0,0,1,.49-.46,3.53,3.53,0,0,1,.88-.33,6.39,6.39,0,0,1,1.34-.12v-.37a1.3,1.3,0,0,0-.23-.83.85.85,0,0,0-.69-.28,1.46,1.46,0,0,0-.5.08,1.43,1.43,0,0,0-.35.17l-.26.17a.35.35,0,0,1-.21.07.24.24,0,0,1-.15,0,.52.52,0,0,1-.1-.11l-.14-.26a2.49,2.49,0,0,1,.83-.56,2.55,2.55,0,0,1,1-.18,1.85,1.85,0,0,1,.69.12,1.47,1.47,0,0,1,.51.36,1.53,1.53,0,0,1,.31.56,2.36,2.36,0,0,1,.11.72Zm-2.12-.5a1.64,1.64,0,0,0,.4,0,1.2,1.2,0,0,0,.33-.13,2,2,0,0,0,.31-.19,3.5,3.5,0,0,0,.28-.27v-1a5.24,5.24,0,0,0-1,.07,2.58,2.58,0,0,0-.64.19.89.89,0,0,0-.36.27.59.59,0,0,0-.11.36.79.79,0,0,0,.06.32.6.6,0,0,0,.16.22.71.71,0,0,0,.23.12A1,1,0,0,0,163.37,18.82Z" transform="translate(0)" fill="#5dade0"/><path d="M166.73,19.32V14.65h.46a.31.31,0,0,1,.19,0,.39.39,0,0,1,.07.17l.05.73a2.21,2.21,0,0,1,.59-.76,1.3,1.3,0,0,1,.82-.27,1.25,1.25,0,0,1,.35,0,1.48,1.48,0,0,1,.29.12l-.11.62a.14.14,0,0,1-.14.11.68.68,0,0,1-.2,0,1.18,1.18,0,0,0-.37-.05,1.08,1.08,0,0,0-.71.25,1.93,1.93,0,0,0-.48.73v3Z" transform="translate(0)" fill="#5dade0"/></g></g></svg>